HIERARCHY
ROOT root
{
	OFFSET	0	13.1	24.9
	CHANNELS 6  Xposition Yposition Zposition Xrotation Yrotation Zrotation
	JOINT spine_1
	{
		OFFSET	0	9.99999	0
		CHANNELS 3  Xrotation Yrotation Zrotation
		JOINT spine_2
		{
			OFFSET	0	112	-10
			CHANNELS 3  Xrotation Yrotation Zrotation
			JOINT spine_3
			{
				OFFSET	0	206.5	19.3
				CHANNELS 3  Xrotation Yrotation Zrotation
				JOINT spine_4
				{
					OFFSET	0	110.4	14.6
					CHANNELS 3  Xrotation Yrotation Zrotation
					JOINT neck_1
					{
						OFFSET	0	71.8	-50.3
						CHANNELS 3  Xrotation Yrotation Zrotation
						JOINT neck_2
						{
							OFFSET	0	86.2	-25.8
							CHANNELS 3  Xrotation Yrotation Zrotation
							JOINT head_ee
							{
								OFFSET	0	179.8	-8.7
								CHANNELS 3  Xrotation Yrotation Zrotation
								End Site
								{
									OFFSET	1	0	0
								}
							}
						}
					}
					JOINT left_clavicle
					{
						OFFSET	-43.2	22.4	-70.8
						CHANNELS 3  Xrotation Yrotation Zrotation
						JOINT left_shoulder
						{
							OFFSET	-93.9	-5.79999	48.7
							CHANNELS 3  Xrotation Yrotation Zrotation
							JOINT left_elbow
							{
								OFFSET	-291.4	-30.8	15.2
								CHANNELS 3  Xrotation Yrotation Zrotation
								JOINT left_lowarm_twist
								{
									OFFSET	-110.7	-3.89999	13.6
									CHANNELS 3  Xrotation Yrotation Zrotation
									JOINT left_hand
									{
										OFFSET	-110.7	-3.89999	13.6
										CHANNELS 3  Xrotation Yrotation Zrotation
										JOINT left_ee
										{
											OFFSET	-80.8	-5.10001	12.1
											CHANNELS 3  Xrotation Yrotation Zrotation
											End Site
											{
												OFFSET	1	0	0
											}
										}
									}
								}
							}
						}
					}
					JOINT right_clavicle
					{
						OFFSET	43.2	22.4	-70.8
						CHANNELS 3  Xrotation Yrotation Zrotation
						JOINT right_shoulder
						{
							OFFSET	93.9	-5.79999	48.7
							CHANNELS 3  Xrotation Yrotation Zrotation
							JOINT right_elbow
							{
								OFFSET	291.4	-30.8	15.2
								CHANNELS 3  Xrotation Yrotation Zrotation
								JOINT right_lowarm_twist
								{
									OFFSET	110.7	-3.89999	13.6
									CHANNELS 3  Xrotation Yrotation Zrotation
									JOINT right_hand
									{
										OFFSET	110.7	-3.89999	13.6
										CHANNELS 3  Xrotation Yrotation Zrotation
										JOINT right_ee
										{
											OFFSET	80.8	-5.10001	12.1
											CHANNELS 3  Xrotation Yrotation Zrotation
											End Site
											{
												OFFSET	1	0	0
											}
										}
									}
								}
							}
						}
					}
				}
			}
		}
	}
	JOINT left_hip
	{
		OFFSET	-82.8	-127.5	0.300001
		CHANNELS 3  Xrotation Yrotation Zrotation
		JOINT left_knee
		{
			OFFSET	-28.2	-396.7	2.2
			CHANNELS 3  Xrotation Yrotation Zrotation
			JOINT left_ankle
			{
				OFFSET	-11.7	-411.3	35.4
				CHANNELS 3  Xrotation Yrotation Zrotation
				JOINT left_toes
				{
					OFFSET	0	-60	-88.6
					CHANNELS 3  Xrotation Yrotation Zrotation
					JOINT left_foot_ee
					{
						OFFSET	-22.5	-16.5	-42.2
						CHANNELS 3  Xrotation Yrotation Zrotation
						End Site
						{
							OFFSET	1	0	0
						}
					}
				}
			}
		}
	}
	JOINT right_hip
	{
		OFFSET	82.8	-127.5	0.300001
		CHANNELS 3  Xrotation Yrotation Zrotation
		JOINT right_knee
		{
			OFFSET	28.2	-396.7	2.2
			CHANNELS 3  Xrotation Yrotation Zrotation
			JOINT right_ankle
			{
				OFFSET	11.7	-411.3	35.4
				CHANNELS 3  Xrotation Yrotation Zrotation
				JOINT right_toes
				{
					OFFSET	0	-60	-88.6
					CHANNELS 3  Xrotation Yrotation Zrotation
					JOINT right_foot_ee
					{
						OFFSET	22.5	-16.5	-42.2
						CHANNELS 3  Xrotation Yrotation Zrotation
						End Site
						{
							OFFSET	1	0	0
						}
					}
				}
			}
		}
	}
}
MOTION
Frames: 5
Frame Time: 0.02
1976.62 697.547 -1560.5 -11.0576 64.3232 9.40801 3.6011 0.649112 -0.420261 3.60095 0.674539 -0.378104 3.59655 0.723197 -0.273766 3.59707 0.670885 -0.38455 -28.7599 14.4393 8.80334 -30.125 24.5579 16.839 -0.0 0.0 -0.0 1.62716 24.484 5.00483 -31.2476 -4.70003 63.7859 2.0437 -45.3475 0.853874 -66.0494 -6.04322 5.24934 -1.9488 -1.34626 -13.7583 -0.0 0.0 -0.0 14.7517 25.129 -29.8823 -6.13322 -0.308503 -65.2195 0.216579 6.1238 -0.0115851 84.7984 4.40241 8.8568 0.354228 -29.1786 -13.3563 0.0 0.0 0.0 25.4903 26.7415 -19.8092 -35.3367 -0.19705 5.33451 29.3364 -3.97771 -3.87748 13.7153 -0.0 -0.0 -0.0 0.0 -0.0 4.53758 7.27569 0.44207 -22.8116 -0.25166 -3.46851 39.0944 19.0991 5.23375 -6.82977 0.0 0.0 0.0 0.0 0.0 
1970.52 698.878 -1564.37 -13.2156 65.8332 11.8106 3.82058 0.612376 -0.423456 3.82045 0.63808 -0.383631 3.81624 0.686867 -0.287281 3.81668 0.632876 -0.392156 -28.5948 15.1539 8.35032 -30.1899 26.0619 16.8695 -0.0 0.0 -0.0 1.41289 24.3437 4.70802 -32.7295 -3.33479 64.498 1.91666 -43.5102 0.764927 -65.7079 -5.99994 5.24313 -2.02294 -0.599506 -13.9215 -0.0 0.0 -0.0 14.8521 25.6081 -30.0617 -4.45019 0.295604 -65.6542 0.212635 6.01311 -0.0111681 85.3404 4.46733 8.88171 0.357389 -29.171 -13.3713 0.0 0.0 0.0 26.0381 23.237 -19.3161 -35.2178 -0.190884 5.31731 26.206 -3.49443 -3.52278 13.1026 -0.0 -0.0 -0.0 0.0 -0.0 3.56424 5.28167 0.171836 -20.4392 -0.290159 -3.10653 38.6232 18.0658 5.14965 -5.62231 0.0 0.0 0.0 0.0 0.0 
1959.04 699.207 -1565.82 -12.7208 67.2928 11.3311 3.86598 0.603904 -0.427355 3.86586 0.629874 -0.38806 3.86165 0.679156 -0.29339 3.86208 0.624297 -0.39697 -29.1096 15.5238 8.32485 -30.8753 26.8118 17.2732 -0.0 0.0 -0.0 1.18729 24.8337 4.44027 -33.8695 -1.78405 65.2893 1.84779 -42.465 0.71797 -65.7198 -6.00145 5.24335 -1.90643 -0.685956 -13.1597 -0.0 0.0 -0.0 14.7753 25.6404 -29.8752 -3.28142 0.510768 -65.825 0.241639 6.82603 -0.0144111 85.4152 4.4763 8.88509 0.450447 -27.5929 -13.3809 0.0 0.0 0.0 26.1587 21.6831 -18.9025 -35.732 -0.217802 5.39159 23.1402 -2.87685 -3.15732 12.4055 -0.0 -0.0 -0.0 0.0 -0.0 2.41357 3.44306 0.324412 -20.903 -0.283812 -3.1774 39.2679 14.592 5.08762 -4.24758 0.0 0.0 0.0 0.0 0.0 
1951.92 697.91 -1564.26 -13.9375 68.3289 12.7048 4.00503 0.629677 -0.524441 4.00494 0.661772 -0.48331 3.9994 0.723508 -0.38479 3.99979 0.653658 -0.494228 -29.3274 15.7117 7.8688 -31.2269 27.3345 17.0737 -0.0 0.0 -0.0 1.01205 25.5324 4.26122 -35.2725 -0.183027 66.7482 1.78266 -41.4432 0.674428 -65.8559 -6.0187 5.24585 -1.87954 -0.636974 -12.9522 -0.0 0.0 -0.0 14.7333 25.5893 -29.7819 -1.73591 0.934394 -66.1411 0.328159 9.23345 -0.0264995 85.3059 4.46318 8.88014 0.472661 -26.7198 -13.2226 0.0 0.0 0.0 26.1309 18.5584 -18.0102 -33.0666 -0.0855558 5.00412 19.3045 -2.35749 -2.68106 11.0518 -0.0 -0.0 -0.0 0.0 -0.0 1.48329 2.03004 0.331193 -19.0877 -0.305379 -2.89971 39.8671 13.9542 5.12107 -3.19512 0.0 0.0 0.0 0.0 0.0 
1943.03 700.153 -1564.34 -12.8826 69.1711 11.872 3.92931 0.648914 -0.515211 3.9292 0.680383 -0.472875 3.92364 0.740946 -0.370848 3.92408 0.673079 -0.483215 -28.3332 16.2887 6.43462 -30.4526 28.8707 15.8787 -0.0 0.0 -0.0 1.07445 23.5964 4.19539 -36.0846 1.59405 68.2732 1.54828 -37.4845 0.525364 -63.6107 -5.7349 5.19932 -1.60777 -1.36727 -11.4254 -0.0 0.0 -0.0 14.6122 25.8076 -29.4679 -0.66073 1.24404 -66.5043 0.442252 12.3573 -0.0478773 85.29 4.46128 8.87942 0.802186 -26.0615 -14.909 0.0 0.0 0.0 26.3035 16.3047 -17.531 -31.2277 -0.00491176 4.73348 16.4074 -0.763016 -2.29917 9.32443 -0.0 -0.0 -0.0 0.0 -0.0 0.309631 0.902692 0.267682 -18.011 -0.314009 -2.73475 39.2879 12.902 5.03902 -1.60685 0.0 0.0 0.0 0.0 0.0 
